<?xml version="1.0" encoding="UTF-8"?>
<svg width="1920px" height="1092px" viewBox="0 0 1920 1092" version="1.1" xmlns="http://www.w3.org/2000/svg" xmlns:xlink="http://www.w3.org/1999/xlink">
    <!-- Generator: Sketch 54.1 (76490) - https://sketchapp.com -->
    <title>Combined Shape</title>
    <desc>Created with Sketch.</desc>
    <defs>
        <path d="M160.5,2080.5 L3.061617e-17,2080.5 L160.5,2080.5 L160.5,1880.5 L361,1880.5 L361,1680.5 L560.5,1680.5 L560.5,1880.5 L361,1880.5 L361,2080.5 L160.5,2080.5 L160.5,2160 L160.5,2080.5 L361,2080.5 L361,1880.5 L560.5,1880.5 L560.5,1680.5 L761,1680.5 L761,1880.5 L960,1880.5 L960,2080.5 L761,2080.5 L761,2160 L761,2080.5 L960,2080.5 L960,2160 L960,2080.5 L1160.5,2080.5 L1160.5,2160 L1160.5,2080.5 L960,2080.5 L960,1880.5 L761,1880.5 L761,2080.5 L560.5,2080.5 L560.5,2160 L560.5,2080.5 L761,2080.5 L761,1880.5 L560.5,1880.5 L560.5,2080.5 L361,2080.5 L361,2160 L361,2080.5 L560.5,2080.5 L560.5,1880.5 L761,1880.5 L761,1680.5 L560.5,1680.5 L560.5,1480.5 L361,1480.5 L361,1680.5 L160.5,1680.5 L160.5,1880.5 L3.061617e-17,1880.5 L160.5,1880.5 L160.5,1680.5 L361,1680.5 L361,1480.5 L160.5,1480.5 L160.5,1680.5 L3.061617e-17,1680.5 L160.5,1680.5 L160.5,1480.5 L361,1480.5 L361,1280.5 L160.5,1280.5 L160.5,1080 L160.5,1280.5 L3.061617e-17,1280.5 L160.5,1280.5 L160.5,1480.5 L3.061617e-17,1480.5 L160.5,1480.5 L160.5,1280.5 L361,1280.5 L361,1480.5 L560.5,1480.5 L560.5,1680.5 L361,1680.5 L361,1880.5 L160.5,1880.5 L160.5,2080.5 Z M1760.5,2080.5 L1760.5,1880.5 L1920,1880.5 L1760.5,1880.5 L1760.5,1680.5 L1920,1680.5 L1760.5,1680.5 L1760.5,1480.5 L1920,1480.5 L1760.5,1480.5 L1760.5,1280.5 L1920,1280.5 L1760.5,1280.5 L1760.5,1080 L1760.5,1280.5 L1560.5,1280.5 L1560.5,1080 L1560.5,1280.5 L1760.5,1280.5 L1760.5,1480.5 L1560.5,1480.5 L1560.5,1280.5 L1360,1280.5 L1360,1080 L1360,1280.5 L1560.5,1280.5 L1560.5,1480.5 L1760.5,1480.5 L1760.5,1680.5 L1560.5,1680.5 L1560.5,1480.5 L1360,1480.5 L1360,1280.5 L1160.5,1280.5 L1160.5,1080 L1160.5,1280.5 L1360,1280.5 L1360,1480.5 L1560.5,1480.5 L1560.5,1680.5 L1760.5,1680.5 L1760.5,1880.5 L1560.5,1880.5 L1560.5,1680.5 L1360,1680.5 L1360,1480.5 L1160.5,1480.5 L1160.5,1280.5 L960,1280.5 L960,1080 L960,1280.5 L1160.5,1280.5 L1160.5,1480.5 L1360,1480.5 L1360,1680.5 L1560.5,1680.5 L1560.5,1880.5 L1760.5,1880.5 L1760.5,2080.5 L1560.5,2080.5 L1560.5,1880.5 L1360,1880.5 L1360,1680.5 L1160.5,1680.5 L1160.5,1480.5 L960,1480.5 L960,1280.5 L761,1280.5 L761,1080 L761,1280.5 L960,1280.5 L960,1480.5 L1160.5,1480.5 L1160.5,1680.5 L1360,1680.5 L1360,1880.5 L1560.5,1880.5 L1560.5,2080.5 L1760.5,2080.5 L1760.5,2160 L1760.5,2080.5 L1920,2080.5 L1760.5,2080.5 Z M1560.5,2080.5 L1560.5,2160 L1560.5,2080.5 L1360,2080.5 L1360,1880.5 L1160.5,1880.5 L1160.5,1680.5 L960,1680.5 L960,1480.5 L761,1480.5 L761,1280.5 L560.5,1280.5 L560.5,1080 L560.5,1280.5 L761,1280.5 L761,1480.5 L960,1480.5 L960,1680.5 L1160.5,1680.5 L1160.5,1880.5 L1360,1880.5 L1360,2080.5 L1560.5,2080.5 Z M1360,2080.5 L1160.5,2080.5 L1160.5,1880.5 L960,1880.5 L960,1680.5 L761,1680.5 L761,1480.5 L560.5,1480.5 L560.5,1280.5 L361,1280.5 L361,1080 L361,1280.5 L560.5,1280.5 L560.5,1480.5 L761,1480.5 L761,1680.5 L960,1680.5 L960,1880.5 L1160.5,1880.5 L1160.5,2080.5 L1360,2080.5 L1360,2160 L1360,2080.5 Z" id="path-1"></path>
        <filter x="-1.2%" y="-1.9%" width="102.3%" height="104.2%" filterUnits="objectBoundingBox" id="filter-2">
            <feMorphology radius="3" operator="dilate" in="SourceAlpha" result="shadowSpreadOuter1"></feMorphology>
            <feOffset dx="0" dy="2" in="shadowSpreadOuter1" result="shadowOffsetOuter1"></feOffset>
            <feMorphology radius="3" operator="erode" in="SourceAlpha" result="shadowInner"></feMorphology>
            <feOffset dx="0" dy="2" in="shadowInner" result="shadowInner"></feOffset>
            <feComposite in="shadowOffsetOuter1" in2="shadowInner" operator="out" result="shadowOffsetOuter1"></feComposite>
            <feGaussianBlur stdDeviation="7" in="shadowOffsetOuter1" result="shadowBlurOuter1"></feGaussianBlur>
            <feColorMatrix values="0 0 0 0 1   0 0 0 0 0.537254902   0 0 0 0 0  0 0 0 0.822934878 0" type="matrix" in="shadowBlurOuter1"></feColorMatrix>
        </filter>
    </defs>
    <g id="Page-1" stroke="none" stroke-width="1" fill="none" fill-rule="evenodd">
        <g id="website-hd" transform="translate(0.000000, -1068.000000)">
            <g id="Combined-Shape">
                <use fill="black" fill-opacity="1" filter="url(#filter-2)" xlink:href="#path-1"></use>
                <use stroke="#FF8900" stroke-width="5" xlink:href="#path-1"></use>
            </g>
        </g>
    </g>
</svg>