<?xml version="1.0" encoding="UTF-8"?>
<svg width="481px" height="445px" viewBox="0 0 481 445" version="1.1" xmlns="http://www.w3.org/2000/svg" xmlns:xlink="http://www.w3.org/1999/xlink">
    <!-- Generator: Sketch 54.1 (76490) - https://sketchapp.com -->
    <title>Group 7 Copy 9</title>
    <desc>Created with Sketch.</desc>
    <g id="Page-1" stroke="none" stroke-width="1" fill="none" fill-rule="evenodd">
        <g id="Artboard-Copy" transform="translate(-3686.000000, -301.000000)" fill="#FF8900">
            <g id="Group-7-Copy-9" transform="translate(3686.000000, 301.000000)">
                <path d="M294.383014,124.439864 L246.091036,228.002345 L0,113.248211 L0,20.3324798 C-3.53122999e-16,17.4490117 0.623495837,14.599638 1.82774708,11.9796824 C6.44086968,1.94342427 18.3165392,-2.45289573 28.3527974,2.16022687 L294.383014,124.439864 Z M322.739598,137.473845 L468.464649,204.455733 C472.805556,206.451013 476.288825,209.934282 478.284104,214.275189 C482.897227,224.311447 478.500907,236.187117 468.464649,240.800239 L370.299199,285.921563 L274.375262,241.191497 L322.739598,137.473845 Z M333.093739,303.022892 L97.4774772,411.322886 L181.041306,232.119678 L333.093739,303.022892 Z M53.6490189,431.468447 L28.3527974,443.095746 C25.7328418,444.299997 22.8834681,444.923493 20,444.923493 C8.954305,444.923493 3.33271306e-14,435.969188 3.19744231e-14,424.923493 L1.00656274e-14,147.698731 L152.757079,218.930526 L53.6490189,431.468447 Z" id="Combined-Shape"></path>
            </g>
        </g>
    </g>
</svg>