<?xml version="1.0" encoding="UTF-8"?>
<svg width="990px" height="361px" viewBox="0 0 990 361" version="1.1" xmlns="http://www.w3.org/2000/svg" xmlns:xlink="http://www.w3.org/1999/xlink">
    <!-- Generator: Sketch 54.1 (76490) - https://sketchapp.com -->
    <title>Group</title>
    <desc>Created with Sketch.</desc>
    <g id="Page-1" stroke="none" stroke-width="1" fill="none" fill-rule="evenodd">
        <g id="Artboard-Copy" transform="translate(-4346.000000, -1013.000000)" fill="#000000" fill-rule="nonzero">
            <g id="Group-7-Copy-9" transform="translate(3686.000000, 301.000000)">
                <g id="Group" transform="translate(660.120000, 712.720000)">
                    <path d="M160.82,64.94 C174.420068,64.94 187.169941,68.2832999 199.07,74.97 C210.97006,81.6567001 220.54663,91.3466032 227.8,104.04 C235.05337,116.733397 238.68,131.579915 238.68,148.58 C238.68,168.753434 234.203378,186.943252 225.25,203.15 C216.296622,219.356748 204.170077,232.10662 188.87,241.4 C173.569924,250.69338 156.853424,255.34 138.72,255.34 C111.9732,255.34 93.1600544,246.953417 82.28,230.18 L64.6,318.24 L5.1159077e-13,318.24 L49.98,68 L111.18,68 L107.44,85.34 C122.173407,71.739932 139.966562,64.94 160.82,64.94 Z M129.54,203.32 C142.460065,203.32 152.999959,198.560048 161.16,189.04 C169.320041,179.519952 173.4,167.166743 173.4,151.98 C173.4,141.099946 170.283365,132.486698 164.05,126.14 C157.816636,119.793302 149.260054,116.62 138.38,116.62 C125.459935,116.62 114.920041,121.379952 106.76,130.9 C98.5999592,140.420048 94.52,152.88659 94.52,168.3 C94.52,179.180054 97.6366355,187.736635 103.87,193.97 C110.103365,200.203364 118.659946,203.32 129.54,203.32 Z M341.9,255.34 C322.406569,255.34 305.406739,251.883368 290.9,244.97 C276.393261,238.056632 265.173373,228.253397 257.24,215.56 C249.306627,202.866603 245.34,188.133417 245.34,171.36 C245.34,151.186566 250.213285,133.053414 259.96,116.96 C269.706715,100.866586 283.193247,88.1733798 300.42,78.88 C317.646753,69.5866202 337.026559,64.94 358.56,64.94 C378.053431,64.94 395.053261,68.3966321 409.56,75.31 C424.066739,82.2233679 435.286627,91.9699371 443.22,104.55 C451.153373,117.130063 455.12,131.806583 455.12,148.58 C455.12,168.753434 450.246715,186.943252 440.5,203.15 C430.753285,219.356748 417.323419,232.10662 400.21,241.4 C383.096581,250.69338 363.660109,255.34 341.9,255.34 Z M345.64,203.32 C358.560065,203.32 369.099959,198.560048 377.26,189.04 C385.420041,179.519952 389.5,167.166743 389.5,151.98 C389.5,141.099946 386.440031,132.486698 380.32,126.14 C374.199969,119.793302 365.700054,116.62 354.82,116.62 C341.899935,116.62 331.360041,121.379952 323.2,130.9 C315.039959,140.420048 310.96,152.88659 310.96,168.3 C310.96,179.180054 314.019969,187.736635 320.14,193.97 C326.260031,200.203364 334.759946,203.32 345.64,203.32 Z M505.98,-1.13686838e-13 L570.58,-1.13686838e-13 L520.26,252.28 L455.66,252.28 L505.98,-1.13686838e-13 Z M798.24,-1.13686838e-13 L747.92,252.28 L686.72,252.28 L690.46,234.26 C675.726593,248.313404 657.933438,255.34 637.08,255.34 C623.479932,255.34 610.73006,251.9967 598.83,245.31 C586.929941,238.6233 577.35337,228.933397 570.1,216.24 C562.84663,203.546603 559.22,188.586753 559.22,171.36 C559.22,151.413234 563.696622,133.336748 572.65,117.13 C581.603378,100.923252 593.78659,88.1733798 609.2,78.88 C624.61341,69.5866202 641.386576,64.94 659.52,64.94 C685.813465,64.94 704.513278,73.0999184 715.62,89.42 L733.64,-1.13686838e-13 L798.24,-1.13686838e-13 Z M659.52,203.32 C672.440065,203.32 682.979959,198.560048 691.14,189.04 C699.300041,179.519952 703.38,167.166743 703.38,151.98 C703.38,141.099946 700.320031,132.486698 694.2,126.14 C688.079969,119.793302 679.580054,116.62 668.7,116.62 C655.779935,116.62 645.240041,121.379952 637.08,130.9 C628.919959,140.420048 624.84,152.88659 624.84,168.3 C624.84,179.180054 627.899969,187.736635 634.02,193.97 C640.140031,200.203364 648.639946,203.32 659.52,203.32 Z M873.24,88.4 C888.65341,72.7599218 910.866522,64.94 939.88,64.94 L928.66,123.08 C922.993305,122.399997 918.12002,122.06 914.04,122.06 C899.533261,122.06 887.91671,125.516632 879.19,132.43 C870.46329,139.343368 864.626681,150.279925 861.68,165.24 L844,252.28 L779.4,252.28 L816.12,68 L877.32,68 L873.24,88.4 Z M948.58,255.34 C937.926613,255.34 929.143368,251.9967 922.23,245.31 C915.316632,238.6233 911.86,230.180051 911.86,219.98 C911.86,207.739939 915.883293,197.823371 923.93,190.23 C931.976707,182.636629 941.779942,178.84 953.34,178.84 C964.220054,178.84 973.0033,182.069968 979.69,188.53 C986.3767,194.990032 989.72,203.546613 989.72,214.2 C989.72,226.213393 985.696707,236.073295 977.65,243.78 C969.603293,251.486705 959.91339,255.34 948.58,255.34 Z" id="poldr."></path>
                    <path d="M646.83,311.58 C652.77003,311.58 657.434983,313.289983 660.825,316.71 C664.215017,320.130017 665.91,325.169967 665.91,331.83 L665.91,359.28 L659.52,359.28 L659.52,332.46 C659.52,327.539975 658.335012,323.790013 655.965,321.21 C653.594988,318.629987 650.250022,317.34 645.93,317.34 C641.009975,317.34 637.140014,318.854985 634.32,321.885 C631.499986,324.915015 630.09,329.099973 630.09,334.44 L630.09,359.28 L623.7,359.28 L623.7,332.46 C623.7,327.539975 622.515012,323.790013 620.145,321.21 C617.774988,318.629987 614.400022,317.34 610.02,317.34 C605.159976,317.34 601.305014,318.854985 598.455,321.885 C595.604986,324.915015 594.18,329.099973 594.18,334.44 L594.18,359.28 L587.79,359.28 L587.79,311.94 L593.91,311.94 L593.91,320.58 C595.590008,317.699986 597.929985,315.480008 600.93,313.92 C603.930015,312.359992 607.37998,311.58 611.28,311.58 C615.24002,311.58 618.674985,312.419992 621.585,314.1 C624.495015,315.780008 626.669993,318.269983 628.11,321.57 C629.850009,318.449984 632.354984,316.005009 635.625,314.235 C638.895016,312.464991 642.629979,311.58 646.83,311.58 Z M724.5,337.59 L684.9,337.59 C685.260002,342.510025 687.149983,346.484985 690.57,349.515 C693.990017,352.545015 698.309974,354.06 703.53,354.06 C706.470015,354.06 709.169988,353.535005 711.63,352.485 C714.090012,351.434995 716.219991,349.89001 718.02,347.85 L721.62,351.99 C719.519989,354.510013 716.895016,356.429993 713.745,357.75 C710.594984,359.070007 707.130019,359.73 703.35,359.73 C698.489976,359.73 694.185019,358.69501 690.435,356.625 C686.684981,354.55499 683.76001,351.690018 681.66,348.03 C679.559989,344.369982 678.51,340.230023 678.51,335.61 C678.51,330.989977 679.51499,326.850018 681.525,323.19 C683.53501,319.529982 686.294982,316.68001 689.805,314.64 C693.315018,312.59999 697.259978,311.58 701.64,311.58 C706.020022,311.58 709.949983,312.59999 713.43,314.64 C716.910017,316.68001 719.63999,319.514982 721.62,323.145 C723.60001,326.775018 724.59,330.929977 724.59,335.61 L724.5,337.59 Z M701.64,317.07 C697.079977,317.07 693.255015,318.524985 690.165,321.435 C687.074985,324.345015 685.320002,328.139977 684.9,332.82 L718.47,332.82 C718.049998,328.139977 716.295015,324.345015 713.205,321.435 C710.114985,318.524985 706.260023,317.07 701.64,317.07 Z M780.84,292.5 L780.84,359.28 L774.72,359.28 L774.72,349.92 C772.79999,353.100016 770.265016,355.529992 767.115,357.21 C763.964984,358.890008 760.41002,359.73 756.45,359.73 C752.009978,359.73 747.990018,358.71001 744.39,356.67 C740.789982,354.62999 737.97001,351.780018 735.93,348.12 C733.88999,344.459982 732.87,340.290023 732.87,335.61 C732.87,330.929977 733.88999,326.760018 735.93,323.1 C737.97001,319.439982 740.789982,316.60501 744.39,314.595 C747.990018,312.58499 752.009978,311.58 756.45,311.58 C760.290019,311.58 763.754985,312.374992 766.845,313.965 C769.935015,315.555008 772.46999,317.879985 774.45,320.94 L774.45,292.5 L780.84,292.5 Z M756.99,354.06 C760.290016,354.06 763.274987,353.295008 765.945,351.765 C768.615013,350.234992 770.714992,348.060014 772.245,345.24 C773.775008,342.419986 774.54,339.210018 774.54,335.61 C774.54,332.009982 773.775008,328.800014 772.245,325.98 C770.714992,323.159986 768.615013,320.985008 765.945,319.455 C763.274987,317.924992 760.290016,317.16 756.99,317.16 C753.629983,317.16 750.615013,317.924992 747.945,319.455 C745.274987,320.985008 743.175008,323.159986 741.645,325.98 C740.114992,328.800014 739.35,332.009982 739.35,335.61 C739.35,339.210018 740.114992,342.419986 741.645,345.24 C743.175008,348.060014 745.274987,350.234992 747.945,351.765 C750.615013,353.295008 753.629983,354.06 756.99,354.06 Z M798.66,311.94 L805.05,311.94 L805.05,359.28 L798.66,359.28 L798.66,311.94 Z M801.9,301.59 C800.579993,301.59 799.470004,301.140004 798.57,300.24 C797.669995,299.339995 797.22,298.260006 797.22,297 C797.22,295.799994 797.669995,294.750004 798.57,293.85 C799.470004,292.949995 800.579993,292.5 801.9,292.5 C803.22,292.5 804.329995,292.934996 805.23,293.805 C806.130004,294.675004 806.58,295.709994 806.58,296.91 C806.58,298.230007 806.130004,299.339995 805.23,300.24 C804.329995,301.140004 803.220007,301.59 801.9,301.59 Z M839.43,311.58 C845.610031,311.58 850.349983,313.124985 853.65,316.215 C856.950016,319.305015 858.6,323.87997 858.6,329.94 L858.6,359.28 L852.48,359.28 L852.48,351.9 C851.039993,354.360012 848.925014,356.279993 846.135,357.66 C843.344986,359.040007 840.030019,359.73 836.19,359.73 C830.909974,359.73 826.710016,358.470013 823.59,355.95 C820.469984,353.429987 818.91,350.100021 818.91,345.96 C818.91,341.93998 820.364985,338.700012 823.275,336.24 C826.185015,333.779988 830.819968,332.55 837.18,332.55 L852.21,332.55 L852.21,329.67 C852.21,325.58998 851.070011,322.485011 848.79,320.355 C846.509989,318.224989 843.180022,317.16 838.8,317.16 C835.799985,317.16 832.920014,317.654995 830.16,318.645 C827.399986,319.635005 825.03001,320.999991 823.05,322.74 L820.17,317.97 C822.570012,315.92999 825.449983,314.355006 828.81,313.245 C832.170017,312.134994 835.709981,311.58 839.43,311.58 Z M837.18,354.69 C840.780018,354.69 843.869987,353.865008 846.45,352.215 C849.030013,350.564992 850.949994,348.180016 852.21,345.06 L852.21,337.32 L837.36,337.32 C829.259959,337.32 825.21,340.139972 825.21,345.78 C825.21,348.540014 826.259989,350.714992 828.36,352.305 C830.46001,353.895008 833.399981,354.69 837.18,354.69 Z" id="media"></path>
                </g>
            </g>
        </g>
    </g>
</svg>